# xmcd
# Copyright (C) 1995-1998 Ti Kan
#
# Track frame offsets:
#       150
#       20867
#       37064
#       52936
#
# Disc length: 943 seconds
#
# Revision: 0
# Processed by: cddbd v1.5.2PL0 Copyright (c) Steve Scherf et al.
# Submitted via: CD-Transfer v1.0
#
DISCID=3003ad04
DTITLE=Schürzenjäger - 
DYEAR=1900
DGENRE=
TTITLE0=Schürzenjäger Neu Track 01
TTITLE1=Schürzenjäger Neu Track 02
TTITLE2=Schürzenjäger Neu Track 03
TTITLE3=Schürzenjäger Neu Track 04
EXTD=
EXTT0=
EXTT1=
EXTT2=
EXTT3=
PLAYORDER=
